<svg xmlns="http://www.w3.org/2000/svg" viewBox="0 0 40.9 40.67"><defs><style>.cls-1{fill:#c0a067;}.cls-2{fill:none;}.cls-2,.cls-3{stroke:#000;stroke-linecap:round;stroke-linejoin:round;}.cls-3{fill:#fff;}</style></defs><g id="Capa_2" data-name="Capa 2"><g id="Capa_1-2" data-name="Capa 1"><path class="cls-1" d="M34.69,19.35c-.86,2.19-2.82,4.58-3.51,5.74a12.27,12.27,0,0,0-1.44,7.14,22,22,0,0,0,2.59,7.83l-16.66.11s-1.46-4.76-3.2-5l-5.89,1.7A1.78,1.78,0,0,1,4.65,36a5.31,5.31,0,0,1-.14-3.2c0-.94-1.18-1.16-1.49-1.53S3.41,30,3.41,30s-1.22-.83-1.22-1.12,1.1-1.33.86-2.1S1.37,25.56.81,25a1,1,0,0,1-.05-1.22s3.75-5,3.7-6.1c0-.77-.58-1.11-1.11-1.58a1.45,1.45,0,0,1-.51-1,36.57,36.57,0,0,0,1.57-4.42A10.64,10.64,0,0,1,9.16,4.13C11.7,2.6,18,1.46,21.94,1.65c0,0,7.83-.5,11.66,4S34.69,19.35,34.69,19.35Z"/><path class="cls-2" d="M34.63,19.35c-.86,2.19-2.82,4.58-3.51,5.74a12.11,12.11,0,0,0-1.44,7.14,22,22,0,0,0,2.59,7.83l-16.66.11s-1.46-4.76-3.2-5l-5.9,1.7A1.76,1.76,0,0,1,4.59,36a5.31,5.31,0,0,1-.14-3.2c0-.94-1.18-1.16-1.49-1.53S3.35,30,3.35,30s-1.22-.83-1.22-1.12,1.09-1.33.86-2.1S1.31,25.56.75,25A1,1,0,0,1,.7,23.79s3.75-5,3.7-6.1c0-.77-.58-1.11-1.11-1.58a1.4,1.4,0,0,1-.51-1,36.57,36.57,0,0,0,1.57-4.42A10.61,10.61,0,0,1,9.1,4.13c2.54-1.53,8.8-2.67,12.78-2.48"/><path class="cls-3" d="M40.39,7.28c0-.64,0-.64,0-1.28l-1.75-.62-.38-.94.81-1.68-.89-.91-1.69.8-.93-.38L35,.51H33.69l-.63,1.76-.94.39-1.67-.8-.9.9.78,1.69c-.15.37-.23.56-.39.93L28.19,6c0,.64,0,.65,0,1.28l1.75.63c.15.38.23.56.38.93l-.81,1.69.9.91,1.68-.81L33,11l.61,1.76h1.27L35.52,11l.94-.38,1.67.8.9-.9-.78-1.69c.15-.37.23-.56.39-.93ZM34.28,9.12a2.46,2.46,0,1,1,2.46-2.46A2.46,2.46,0,0,1,34.28,9.12Z"/><path class="cls-3" d="M33.7,15.26c0-1,0-1,0-2.07l-2.83-1-.61-1.51,1.3-2.73L30.13,6.48,27.4,7.77l-1.5-.62-1-2.85H22.85l-1,2.85-1.51.63-2.71-1.3L16.15,7.93l1.27,2.73c-.25.6-.37.91-.63,1.51l-2.84,1c0,1,0,1,0,2.07l2.83,1c.25.6.37.9.61,1.5l-1.3,2.73c.72.74.72.74,1.45,1.47l2.72-1.3,1.5.63,1,2.85H24.8l1-2.85,1.51-.62L30,22l1.46-1.46-1.27-2.74.63-1.5Zm-9.89,3a4,4,0,1,1,4-4A4,4,0,0,1,23.81,18.23Z"/><path class="cls-2" d="M19,30.88a3,3,0,0,1-.66,1.6A10.93,10.93,0,0,1,15.68,34"/><path class="cls-2" d="M14.11,5.19c-3.35.53-6.08,2-7.3,6.77"/></g></g></svg>