<svg xmlns="http://www.w3.org/2000/svg" xmlns:xlink="http://www.w3.org/1999/xlink" viewBox="0 0 423.61 434.82"><defs><style>.cls-1,.cls-4,.cls-6,.cls-7{fill:none;}.cls-2{clip-path:url(#clip-path);}.cls-3{fill:#fff;}.cls-4{stroke:#000;stroke-linecap:round;}.cls-4,.cls-9{stroke-miterlimit:10;}.cls-4,.cls-6{stroke-width:3px;}.cls-5{clip-path:url(#clip-path-2);}.cls-6,.cls-7,.cls-9{stroke:#fff;}.cls-8{font-size:1.8px;font-family:Quantico-Bold, Quantico;font-weight:700;}.cls-9{stroke-width:0.1px;}</style><clipPath id="clip-path" transform="translate(137.6 143.34)"><rect class="cls-1" width="192" height="108"/></clipPath><clipPath id="clip-path-2" transform="translate(137.6 143.34)"><polygon class="cls-1" points="151.99 121.02 -7.39 121.02 -3.94 -4.73 196.55 109.9 151.99 121.02"/></clipPath></defs><g id="Capa_2" data-name="Capa 2"><g id="Capa_1-2" data-name="Capa 1"><g class="cls-2"><rect x="129.96" y="133.31" width="213.84" height="125.22"/><polygon class="cls-3" points="134.25 141.62 348.77 262.08 337.53 138.79 134.25 141.62"/><path class="cls-4" d="M75.7,62.25s35.64,10.93,51.19,4.15c21.64-9.44,25.55-31.31,25.55-31.31" transform="translate(137.6 143.34)"/><g class="cls-5"><circle class="cls-6" cx="124.79" cy="92.34" r="84.28"/><circle class="cls-6" cx="85.78" cy="120.65" r="84.28"/><circle class="cls-6" cx="95.79" cy="85.78" r="84.28"/><circle class="cls-6" cx="207.43" cy="104.88" r="84.28"/><circle class="cls-6" cx="163.46" cy="94.99" r="84.28"/><circle class="cls-6" cx="272.69" cy="325.51" r="84.28"/><circle class="cls-6" cx="318.49" cy="298.81" r="84.28"/><circle class="cls-6" cx="337.83" cy="311.93" r="84.28"/><circle class="cls-6" cx="222.16" cy="325.05" r="84.28"/><circle class="cls-7" cx="173.48" cy="284.08" r="101.92"/><circle class="cls-7" cx="254.8" cy="331.99" r="101.92"/><circle class="cls-7" cx="280.99" cy="332.39" r="101.92"/><circle class="cls-7" cx="156.56" cy="113.05" r="84.28"/><circle class="cls-7" cx="87.32" cy="164.26" r="65.56"/></g><circle cx="290.49" cy="167.62" r="4.6"/><text class="cls-8" transform="translate(299.1 168.37)">Solución</text><line class="cls-9" x1="298.16" y1="167.81" x2="296.18" y2="167.81"/></g></g></g></svg>