<svg xmlns="http://www.w3.org/2000/svg" viewBox="0 0 515.75 42.1"><defs><style>.cls-1{fill:#1d1d1b;}</style></defs><g id="Capa_2" data-name="Capa 2"><g id="Capa_1-2" data-name="Capa 1"><path class="cls-1" d="M29.35,17.32l-5.16,3v.12l5.16,3V37.83l-6.87,4H0V.3H22.48l6.87,4ZM8.3,7.41v9.37H21.05V7.41Zm0,16.49V34.69H21.05V23.9Z"/><path class="cls-1" d="M70.92,41.81H61.79L52.9,26.15H47.74V41.81h-8.3V.3H61.91l6.88,4V22.18l-6.88,4ZM47.74,7.41V19H60.49V7.41Z"/><path class="cls-1" d="M87.17,24V34.69h16.55v7.12H78.87V.3h24.85V7.41H87.17V16.9h13V24Z"/><path class="cls-1" d="M133.66,29.65H142v8.48l-6.88,4H118.31l-6.88-4V4l6.88-4h16.78L142,4v8.48h-8.31V7.12H119.73V35h13.93Z"/><path class="cls-1" d="M159.76,24V41.81h-8.3V.3h8.3V16.9h16.31V.3h8.3V41.81h-8.3V24Z"/><path class="cls-1" d="M213.66.3l14.83,41.51h-8.18l-3.15-9H201.62l-3.14,9H190.3L205.12.3Zm-4.33,10.43-5.21,15h10.49l-5.16-15Z"/><path class="cls-1" d="M273.56,31.43h5.93v6.7l-6.88,4H257l-6.88-4V4L257,0h15.6l6.88,4v6.7h-5.93V5.34h-17.5V36.77h17.5Z"/><path class="cls-1" d="M304.45,25.26H295.5V41.81h-5.93V.3h21.29l6.88,4v17l-6.88,4,9.55,16.55h-6.59ZM295.5,5.63v14.3h16.31V5.63Z"/><path class="cls-1" d="M334.34,23.13V36.47h17.73v5.34H328.41V.3h23.66V5.63H334.34V17.79h14.18v5.34Z"/><path class="cls-1" d="M378.4.3l14.83,41.51h-5.81L383.92,32H365.53L362,41.81h-5.82L371.05.3Zm-3.73,5.87-7.24,20.46H382L374.78,6.17Z"/><path class="cls-1" d="M411,5.63V41.81H405V5.63h-11.8V.3h29.53V5.63Z"/><path class="cls-1" d="M429.88,41.81V.3h5.93V41.81Z"/><path class="cls-1" d="M479.34.3,464.51,41.81h-7.35L442.33.3h6l12.45,35.4h.12L473.35.3Z"/><path class="cls-1" d="M500.92.3l14.83,41.51h-5.81L506.44,32H488.05l-3.5,9.85h-5.81L493.57.3Zm-3.73,5.87L490,26.63h14.59L497.3,6.17Z"/></g></g></svg>