<svg xmlns="http://www.w3.org/2000/svg" viewBox="0 0 29.26 40.66"><defs><style>.cls-1{fill:#c0a067;}.cls-2{fill:none;stroke:#000;stroke-linecap:round;stroke-linejoin:round;}</style></defs><g id="Capa_2" data-name="Capa 2"><g id="Capa_1-2" data-name="Capa 1"><polygon class="cls-1" points="21.54 17.8 23.26 27.52 14.51 22.97 5.8 27.61 7.41 17.88 0.31 11.03 10.07 9.56 14.39 0.69 18.8 9.51 28.57 10.88 21.54 17.8"/><polygon class="cls-2" points="21.73 17.61 23.45 27.33 14.69 22.78 5.99 27.42 7.6 17.69 0.5 10.84 10.26 9.37 14.57 0.5 18.99 9.32 28.76 10.69 21.73 17.61"/><rect class="cls-1" x="6.01" y="36.93" width="17.23" height="3.73"/><rect class="cls-1" x="7.86" y="32.95" width="13.62" height="3.19"/><path class="cls-1" d="M18.13,32.16H11.2a3.48,3.48,0,0,1,2.26-3V26.25h2.2v2.88A3.48,3.48,0,0,1,18.13,32.16Z"/><line class="cls-2" x1="14.95" y1="5.94" x2="16.55" y2="9.97"/></g></g></svg>