<svg xmlns="http://www.w3.org/2000/svg" viewBox="0 0 39.85 39.65"><defs><style>.cls-1{fill:#90784d;}.cls-2{fill:#c0a067;}.cls-3{fill:#e6d9c2;}.cls-4{fill:#eff7f7;}</style></defs><g id="Capa_2" data-name="Capa 2"><g id="Capa_1-2" data-name="Capa 1"><path class="cls-1" d="M18,38.87l-.21.05a2.58,2.58,0,0,1-3-1.35L9.56,27l5.31-1.41,4.75,9.65A2.58,2.58,0,0,1,18,38.87Z"/><path class="cls-2" d="M9,27.14l8-2.12a1.08,1.08,0,0,0,.78-1.34L14.89,13a1.1,1.1,0,0,0-1.35-.78l-8,2.12a6.62,6.62,0,0,0-4.7,8.1h0A6.63,6.63,0,0,0,9,27.14Z"/><rect class="cls-3" x="16.27" y="12.55" width="2.06" height="11.05" transform="matrix(0.97, -0.26, 0.26, 0.97, -4.07, 5.07)"/><path class="cls-3" d="M39.08,12.29a4,4,0,1,1-4.87-2.82A4,4,0,0,1,39.08,12.29Z"/><path class="cls-2" d="M36.11,27.3a2.74,2.74,0,0,1-3.36-1.95L27.1,4.09a2.7,2.7,0,0,1,.06-1.57v0l0-.09A2.73,2.73,0,0,1,29.05.73a2.88,2.88,0,0,1,.71-.09,2.75,2.75,0,0,1,2.65,2l1.8,6.79,2,7.69L38.06,24A2.74,2.74,0,0,1,36.11,27.3Z"/><path class="cls-4" d="M33.66,26.77a18.31,18.31,0,0,0-13.95-3.62L16.88,12.47h0a18.33,18.33,0,0,0,10.28-10,2.7,2.7,0,0,0-.06,1.57l5.65,21.26A2.74,2.74,0,0,0,33.66,26.77Z"/><path d="M3,16.32a.66.66,0,0,0,.42-.15A5.91,5.91,0,0,1,5.73,15l3.34-.89a.64.64,0,0,0-.33-1.24l-3.34.89A7.12,7.12,0,0,0,2.57,15.2.63.63,0,0,0,3,16.32Z"/><path d="M37,17.57a4.61,4.61,0,0,0-2.35-8.83L34.23,7A.64.64,0,1,0,33,7.35c1.32,5,2.45,9.24,4.45,16.76a2.11,2.11,0,0,1-4.07,1.08L27.72,3.92a2.06,2.06,0,0,1,0-1.18h0a2.1,2.1,0,0,1,4,.12l.18.67a.64.64,0,1,0,1.24-.33L33,2.52A3.39,3.39,0,0,0,28.89.11,3.53,3.53,0,0,0,26.55,2.3a18.66,18.66,0,0,1-9.86,9.55h0l-1.46.39a1.74,1.74,0,0,0-1.84-.65l-.81.21a.64.64,0,0,0,.33,1.24l.81-.21a.44.44,0,0,1,.55.33c.29,1.09-1-4,2.84,10.67h0a.45.45,0,0,1-.32.55L14.7,25c-6.34,1.69-6.38,1.77-7.44,1.77a6,6,0,0,1-5.78-4.45,5.93,5.93,0,0,1,0-3.1A.65.65,0,0,0,1,18.38a.65.65,0,0,0-.79.45,7.27,7.27,0,0,0,7,9.17,7.76,7.76,0,0,0,2-.26l5,10.11a3.38,3.38,0,0,0,6-.15,3.22,3.22,0,0,0,0-2.76L15.79,26l1.32-.35a1.74,1.74,0,0,0,1.27-1.47l1.48-.4a17.83,17.83,0,0,1,13.41,3.51h0a3.38,3.38,0,0,0,5.39-3.5Zm1.43-5.11a3.34,3.34,0,0,1-1.77,3.85L35,10A3.32,3.32,0,0,1,38.46,12.46Zm-19.41,23a1.9,1.9,0,0,1,0,1.66,2.1,2.1,0,0,1-3.72.11L10.48,27.4l4-1.07ZM18.18,22.9l-2.51-9.45.75-.2,2.51,9.44Zm2-.48-2.53-9.55a18.89,18.89,0,0,0,9-8l5.3,20A19,19,0,0,0,20.18,22.42Z"/></g></g></svg>