<svg xmlns="http://www.w3.org/2000/svg" viewBox="0 0 33.6 41.11"><defs><style>.cls-1{fill:#c0a067;}.cls-2{fill:#fff;}.cls-3{fill:none;stroke:#000;stroke-linecap:round;stroke-linejoin:round;}.cls-4{font-size:14.69px;font-family:MyriadPro-Semibold, Myriad Pro;font-weight:600;}</style></defs><g id="Capa_2" data-name="Capa 2"><g id="Capa_1-2" data-name="Capa 1"><polygon class="cls-1" points="7.32 23.7 5.4 23.7 5.4 34.89 1.84 34.89 1.84 23.7 0 23.7 1.82 21.89 3.66 20.08 5.5 21.89 7.32 23.7"/><polygon class="cls-1" points="13.96 16.46 12.03 16.46 12.03 27.65 8.47 27.65 8.47 16.46 6.63 16.46 8.46 14.65 10.3 12.84 12.13 14.65 13.96 16.46"/><polygon class="cls-1" points="20.51 8.19 18.58 8.19 18.58 19.38 15.02 19.38 15.02 8.19 13.19 8.19 15.01 6.38 16.84 4.57 18.68 6.38 20.51 8.19"/><polygon class="cls-1" points="27.14 12.76 25.22 12.76 25.22 23.95 21.66 23.95 21.66 12.76 19.82 12.76 21.64 10.95 23.48 9.13 25.32 10.95 27.14 12.76"/><polygon class="cls-1" points="33.6 3.62 31.68 3.62 31.68 34.6 28.12 34.6 28.12 3.62 26.28 3.62 28.11 1.81 29.94 0 31.78 1.81 33.6 3.62"/><circle class="cls-2" cx="16.55" cy="30.21" r="10.9"/><circle class="cls-3" cx="16.55" cy="30.21" r="8.99"/><text class="cls-4" transform="translate(12.61 34.69)">$</text></g></g></svg>