<svg xmlns="http://www.w3.org/2000/svg" viewBox="0 0 888.85 95.73"><defs><style>.cls-1{fill:#fff;}</style></defs><g id="Capa_2" data-name="Capa 2"><g id="Capa_1-2" data-name="Capa 1"><polygon class="cls-1" points="95.73 63.82 95.73 95.73 0 95.73 0 0 15.95 0 15.95 79.77 79.77 79.77 79.77 63.82 95.73 63.82"/><polygon class="cls-1" points="95.73 0 95.73 31.91 79.77 31.91 79.77 15.95 31.91 15.95 31.91 0 95.73 0"/><rect class="cls-1" x="31.91" y="31.91" width="31.91" height="31.91"/><path class="cls-1" d="M194.79,42.64l-7.36,4.23V47l7.36,4.23V71.92L185,77.59H152.9V18.35H185L194.79,24Zm-30-14.13V41.88h18.19V28.51Zm0,23.52v15.4h18.19V52Z"/><path class="cls-1" d="M254.11,77.59h-13l-12.7-22.34H221V77.59H209.17V18.35h32.07L251.06,24V49.58l-9.82,5.67ZM221,28.51V45.09h18.19V28.51Z"/><path class="cls-1" d="M277.29,52.2V67.43H300.9V77.59H265.45V18.35H300.9V28.51H277.29V42.05h18.54V52.2Z"/><path class="cls-1" d="M343.64,60.24h11.84v12.1L345.67,78H321.72l-9.82-5.67V23.6l9.82-5.67h23.95l9.81,5.67V35.7H343.64V28.08H323.75V67.86h19.89Z"/><path class="cls-1" d="M380.87,52.2V77.59H369V18.35h11.85v23.7h23.27V18.35H416V77.59H404.14V52.2Z"/><path class="cls-1" d="M457.79,18.35,479,77.59H467.27l-4.49-12.78H440.61l-4.48,12.78H424.45L445.6,18.35Zm-6.18,14.9-7.44,21.41h15l-7.36-21.41Z"/><path class="cls-1" d="M543.26,62.78h8.46v9.56L541.9,78H519.65l-9.82-5.67V23.6l9.82-5.67H541.9l9.82,5.67v9.56h-8.46V25.55h-25V70.4h25Z"/><path class="cls-1" d="M587.34,54H574.57V77.59H566.1V18.35h30.38L606.3,24V48.31L596.48,54l13.63,23.61h-9.39ZM574.57,26V46.36h23.27V26Z"/><path class="cls-1" d="M630,50.93V70H655.3v7.62H621.53V18.35H655.3V26H630V43.32h20.23v7.61Z"/><path class="cls-1" d="M692.86,18.35,714,77.59h-8.29l-5-14.05H674.5l-5,14.05h-8.29l21.15-59.24Zm-5.33,8.38-10.32,29.2H698L687.7,26.73Z"/><path class="cls-1" d="M739.32,26V77.59h-8.46V26H714V18.35h42.14V26Z"/><path class="cls-1" d="M766.32,77.59V18.35h8.46V77.59Z"/><path class="cls-1" d="M836.89,18.35,815.74,77.59h-10.5L784.09,18.35h8.54l17.78,50.52h.16l17.77-50.52Z"/><path class="cls-1" d="M867.69,18.35l21.16,59.24h-8.29l-5-14.05H849.33l-5,14.05h-8.29L857.2,18.35Zm-5.33,8.38L852,55.93h20.82l-10.33-29.2Z"/></g></g></svg>