<svg xmlns="http://www.w3.org/2000/svg" viewBox="0 0 608.07 95.73"><defs><style>.cls-1{fill:#fff;}</style></defs><g id="Capa_2" data-name="Capa 2"><g id="Capa_1-2" data-name="Capa 1"><polygon class="cls-1" points="95.73 63.82 95.73 95.73 0 95.73 0 0 15.95 0 15.95 79.77 79.77 79.77 79.77 63.82 95.73 63.82"/><polygon class="cls-1" points="95.73 0 95.73 31.91 79.77 31.91 79.77 15.95 31.91 15.95 31.91 0 95.73 0"/><rect class="cls-1" x="31.91" y="31.91" width="31.91" height="31.91"/><path class="cls-1" d="M179.11,44.68l-4.55,2.61v.11L179.11,50V62.77L173,66.28H153.22V29.67H173l6.07,3.5Zm-18.57-8.74v8.27h11.25V35.94Zm0,14.54V60h11.25V50.48Z"/><path class="cls-1" d="M215.77,66.28h-8.05l-7.85-13.81h-4.55V66.28H188V29.67h19.82l6.07,3.5V49l-6.07,3.51ZM195.32,35.94V46.19h11.24V35.94Z"/><path class="cls-1" d="M230.1,50.59V60h14.59v6.28H222.78V29.67h21.91v6.27H230.1v8.37h11.45v6.28Z"/><path class="cls-1" d="M271.1,55.55h7.33V63l-6.07,3.51h-14.8L251.49,63V32.91l6.07-3.51h14.8l6.07,3.51v7.48H271.1V35.68H258.81V60.26H271.1Z"/><path class="cls-1" d="M294.11,50.59V66.28h-7.32V29.67h7.32V44.31H308.5V29.67h7.32V66.28H308.5V50.59Z"/><path class="cls-1" d="M341.66,29.67l13.07,36.61h-7.22l-2.77-7.9H331l-2.77,7.9h-7.22l13.07-36.61Zm-3.82,9.2-4.6,13.23h9.25l-4.55-13.23Z"/><path class="cls-1" d="M394.48,57.12h5.23V63l-6.07,3.51H379.89L373.82,63V32.91l6.07-3.51h13.75l6.07,3.51v5.91h-5.23V34.11H379.05V61.83h15.43Z"/><path class="cls-1" d="M421.73,51.68h-7.9v14.6H408.6V29.67h18.78l6.06,3.5v15l-6.06,3.5,8.41,14.6H430Zm-7.9-17.31V47h14.38V34.37Z"/><path class="cls-1" d="M448.08,49.8V61.57h15.64v4.71H442.86V29.67h20.86v4.7H448.08V45.09h12.5V49.8Z"/><path class="cls-1" d="M486.94,29.67,500,66.28h-5.13l-3.08-8.69H475.59l-3.08,8.69h-5.13l13.08-36.61Zm-3.29,5.17-6.38,18h12.86l-6.38-18Z"/><path class="cls-1" d="M515.66,34.37V66.28h-5.23V34.37H500v-4.7h26v4.7Z"/><path class="cls-1" d="M532.34,66.28V29.67h5.23V66.28Z"/><path class="cls-1" d="M576,29.67,562.88,66.28H556.4L543.32,29.67h5.29l11,31.22h.1l11-31.22Z"/><path class="cls-1" d="M595,29.67l13.07,36.61H603l-3.09-8.69H583.65l-3.09,8.69h-5.12l13.07-36.61Zm-3.3,5.17-6.38,18h12.87l-6.38-18Z"/></g></g></svg>