<svg xmlns="http://www.w3.org/2000/svg" viewBox="0 0 517.98 91.72"><g id="Capa_2" data-name="Capa 2"><g id="Capa_1-2" data-name="Capa 1"><polygon points="91.72 61.14 91.72 91.72 0 91.72 0 0 15.29 0 15.29 76.43 76.43 76.43 76.43 61.14 91.72 61.14"/><polygon points="91.72 0 91.72 30.57 76.43 30.57 76.43 15.29 30.57 15.29 30.57 0 91.72 0"/><rect x="30.57" y="30.57" width="30.57" height="30.57"/><path d="M174.54,22.17l-3.65,2.09v.09l3.65,2.09V36.66l-4.86,2.8H153.81V10.15h15.87L174.54,13Zm-14.87-7v6.61h9V15.18Zm0,11.64v7.62h9V26.82Z"/><path d="M203.89,39.46h-6.45l-6.28-11h-3.64V39.46h-5.86V10.15h15.87L202.38,13V25.6l-4.85,2.81ZM187.52,15.18v8.21h9V15.18Z"/><path d="M215.36,26.9v7.54H227v5H209.5V10.15H227v5H215.36v6.7h9.17v5Z"/><path d="M248.19,30.88h5.86v6l-4.85,2.8H237.35l-4.86-2.8V12.75l4.86-2.81H249.2l4.85,2.81v6h-5.86V15h-9.84V34.65h9.84Z"/><path d="M266.62,26.9V39.46h-5.87V10.15h5.87V21.88h11.51V10.15H284V39.46h-5.86V26.9Z"/><path d="M304.68,10.15l10.47,29.31h-5.78l-2.22-6.32h-11L294,39.46h-5.78l10.47-29.31Zm-3.06,7.37-3.68,10.6h7.41l-3.65-10.6Z"/><path d="M347,32.14h4.19v4.73l-4.86,2.8h-11l-4.86-2.8V12.75l4.86-2.81h11l4.86,2.81v4.73H347V13.71H334.62v22.2H347Z"/><path d="M368.78,27.78h-6.32V39.46h-4.19V10.15h15L378.16,13V25l-4.85,2.8,6.74,11.68H375.4Zm-6.32-13.86V24H374V13.92Z"/><path d="M389.89,26.27V35.7h12.52v3.76H385.7V10.15h16.71v3.77H389.89v8.59h10v3.76Z"/><path d="M421,10.15l10.47,29.31h-4.1l-2.48-7h-13l-2.47,7h-4.1l10.47-29.31Zm-2.64,4.15-5.11,14.44h10.3l-5.1-14.44Z"/><path d="M444,13.92V39.46H439.8V13.92h-8.33V10.15h20.85v3.77Z"/><path d="M457.35,39.46V10.15h4.18V39.46Z"/><path d="M492.27,10.15,481.8,39.46h-5.19L466.14,10.15h4.23l8.79,25h.09l8.79-25Z"/><path d="M507.51,10.15,518,39.46h-4.11l-2.47-7h-13l-2.47,7h-4.1l10.47-29.31Zm-2.64,4.15-5.11,14.44h10.3L505,14.3Z"/><path d="M156.65,67v6.33h8.41v2.53H153.84V56.17h11.22V58.7h-8.41v5.77h6.73V67Z"/><path d="M179.3,69.39V74L176,75.86h-7.31V73.41h7.85V70H172l-3.26-1.88V63.68L172,61.8h7v2.44h-7.57v3.27H176Z"/><path d="M182.67,64.24V61.8h2.59V59.43L188,57.86V61.8h3.38v2.44H188v9.17h3.38v2.45h-2.85L185.26,74V64.24Z"/><path d="M203.15,64.24H198V75.86H195.3V61.8h2.06L198,63l2-1.15h3.12Z"/><path d="M209,76l-3.27-1.88V69.53L209,67.65h5.12V64.24h-7V61.8h6.44l3.27,1.88V76h-.73l-2-1.15-2,1.15Zm-.54-5.91v3.46h5.66V70.09Z"/><path d="M220.17,64.24V61.8h2.59V59.43l2.73-1.57V61.8h3.38v2.44h-3.38v9.17h3.38v2.45H226L222.76,74V64.24Z"/><path d="M243.91,73.41v2.45h-7.84L232.8,74V63.54l3.27-1.89h4.58l3.26,1.89v6.24h-8.38v3.63Zm-8.38-9.31v3.24h5.66V64.1Z"/><path d="M251.15,75.86l-2.73-1.57V71.75l2-1.15-2-1.15V63.68l3.26-1.88h9v1l-2.56,1.49,1.72,1v3.88L256.55,71h-5.4v2.39h6.24l3.26,1.89v4.44l-3.26,1.89h-6.27l-3.27-1.89V78l2.73-1.58v2.82h7.34V75.86Zm0-11.67v4.44h5.93V64.19Z"/><path d="M264.45,58.34v-3h3v3Zm2.87,3.46V75.86h-2.73V61.8Z"/><path d="M274.52,76l-3.26-1.88V69.53l3.26-1.88h5.12V64.24h-7V61.8h6.44l3.26,1.88V76h-.73l-2-1.15-2,1.15ZM274,70.09v3.46h5.65V70.09Z"/><path d="M297.45,69.39V74l-3.26,1.88h-7.32V73.41h7.85V70h-4.59l-3.26-1.88V63.68l3.26-1.88h7v2.44H289.6v3.27h4.59Z"/><path d="M312.53,61.65h4.25l2,1.16V55.32h2.73V76h-2.05l-.68-1.15-2,1.15h-4.25l-3.27-1.88V63.54Zm6.24,11.9V64.1H312v9.45Z"/><path d="M337.11,73.41v2.45h-7.84L326,74V63.54l3.27-1.89h4.58l3.26,1.89v6.24h-8.38v3.63Zm-8.38-9.31v3.24h5.66V64.1Z"/><path d="M365.64,75.86v-13h-.06l-4.44,13H357.4L352.92,62.7h-.05V75.86h-3.8V56.17h5.23l4.95,14.49h.06l4.92-14.49h5.21V75.86Z"/><path d="M376.64,76l-3.27-1.88V69.25l3.27-1.88h4.56V65.09h-6.42V61.8h7l3.26,1.88V76h-1.86l-2-1.15-2,1.15Zm.59-5.68v2.45h4V70.32Z"/><path d="M398,65.09h-4.84V75.86h-3.85V61.8h3.18l.67,1.15,2-1.15H398Z"/><path d="M404.63,65.09v7.48h7v3.29H404L400.78,74V63.68L404,61.8h7.57v3.29Z"/><path d="M418,76l-3.26-1.88V69.25L418,67.37h4.56V65.09h-6.41V61.8h7l3.26,1.88V76h-1.85l-2-1.15-2,1.15Zm.59-5.68v2.45h4V70.32Z"/></g></g></svg>