<svg xmlns="http://www.w3.org/2000/svg" viewBox="0 0 500.82 89.89"><defs><style>.cls-1{fill:#fff;}</style></defs><g id="Capa_2" data-name="Capa 2"><g id="Capa_1-2" data-name="Capa 1"><polygon class="cls-1" points="89.89 59.92 89.89 89.89 0 89.89 0 0 14.98 0 14.98 74.91 74.91 74.91 74.91 59.92 89.89 59.92"/><polygon class="cls-1" points="89.89 0 89.89 29.96 74.91 29.96 74.91 14.98 29.96 14.98 29.96 0 89.89 0"/><rect class="cls-1" x="29.96" y="29.96" width="29.96" height="29.96"/><path class="cls-1" d="M164.22,42.36l-3.57,2v.08l3.57,2.06v10l-4.76,2.75H143.91V30.58h15.55l4.76,2.75Zm-14.57-6.85V42h8.83V35.51Zm0,11.4v7.47h8.83V46.91Z"/><path class="cls-1" d="M193,59.31h-6.32l-6.16-10.84h-3.57V59.31H171.2V30.58h15.55l4.76,2.75V45.72l-4.76,2.75Zm-16.05-23.8v8h8.83v-8Z"/><path class="cls-1" d="M204.23,47v7.38h11.45v4.93H198.49V30.58h17.19v4.93H204.23v6.56h9V47Z"/><path class="cls-1" d="M236.41,50.89h5.74v5.87l-4.76,2.75H225.78L221,56.76V33.13l4.76-2.75h11.61l4.76,2.75V39h-5.74V35.3h-9.65V54.59h9.65Z"/><path class="cls-1" d="M254.46,47V59.31h-5.74V30.58h5.74V42.07h11.29V30.58h5.75V59.31h-5.75V47Z"/><path class="cls-1" d="M291.77,30.58,302,59.31h-5.67l-2.17-6.2H283.44l-2.18,6.2H275.6l10.26-28.73Zm-3,7.22-3.61,10.39h7.27L288.85,37.8Z"/><path class="cls-1" d="M333.22,52.13h4.1v4.63l-4.76,2.75H321.77L317,56.76V33.13l4.76-2.75h10.79l4.76,2.75v4.63h-4.1V34.07H321.11V55.82h12.11Z"/><path class="cls-1" d="M354.6,47.86h-6.2V59.31h-4.1V30.58H359l4.76,2.75V45.11L359,47.86l6.61,11.45h-4.56Zm-6.2-13.59v9.89h11.29V34.27Z"/><path class="cls-1" d="M375.28,46.38v9.23h12.27v3.7H371.18V30.58h16.37v3.69H375.28v8.42h9.81v3.69Z"/><path class="cls-1" d="M405.77,30.58,416,59.31h-4l-2.42-6.81H396.87l-2.42,6.81h-4l10.26-28.73Zm-2.58,4.06-5,14.16h10.1l-5-14.16Z"/><path class="cls-1" d="M428.3,34.27v25h-4.1v-25H416V30.58h20.44v3.69Z"/><path class="cls-1" d="M441.39,59.31V30.58h4.11V59.31Z"/><path class="cls-1" d="M475.62,30.58,465.36,59.31h-5.09L450,30.58h4.15l8.61,24.5h.09l8.61-24.5Z"/><path class="cls-1" d="M490.56,30.58l10.26,28.73h-4l-2.43-6.81H481.65l-2.42,6.81h-4l10.26-28.73ZM488,34.64,483,48.8h10.09l-5-14.16Z"/></g></g></svg>